<svg xmlns="http://www.w3.org/2000/svg" viewBox="0 0 500.33 100"><defs><style>.a{fill:none;stroke:#000;stroke-miterlimit:10;stroke-width:3px;}</style></defs><title>firatheme</title><path d="M152.15,30.31l-2.21,4.82a14.66,14.66,0,0,0-6.35-1.42c-1.85,0-3.13.33-3.83,1a4.23,4.23,0,0,0-1,3.2V41h16.66v30h-7.26V46.18h-9.4V70.94h-7.26V46.18h-4.7V41h4.7V37.79a9.11,9.11,0,0,1,2.84-7c1.88-1.76,4.77-2.63,8.67-2.63A20.67,20.67,0,0,1,152.15,30.31Z"/><path d="M181.89,40.57l-1.24,7a11.36,11.36,0,0,0-2.67-.34,5.11,5.11,0,0,0-4.19,1.9A14.69,14.69,0,0,0,171.35,55v16H164.1V41h6.29l.68,5.9a10.76,10.76,0,0,1,3.12-5,7.08,7.08,0,0,1,4.7-1.73A10.42,10.42,0,0,1,181.89,40.57Z"/><path d="M207.14,65.58a3.45,3.45,0,0,0,1.73,1.28l-1.53,4.82a9.42,9.42,0,0,1-4.17-1.25,6.42,6.42,0,0,1-2.46-3.12,9.57,9.57,0,0,1-3.83,3.37,11.62,11.62,0,0,1-5.12,1.11,9.7,9.7,0,0,1-7.09-2.55,8.93,8.93,0,0,1-2.6-6.69,8.65,8.65,0,0,1,3.54-7.45q3.54-2.58,10.11-2.58h3.74v-1.7c0-1.92-.44-3.27-1.33-4a6.46,6.46,0,0,0-4.28-1.16,25.24,25.24,0,0,0-7.93,1.59l-1.7-4.93a30.21,30.21,0,0,1,10.88-2.16q11.51,0,11.5,10.32V63A4.75,4.75,0,0,0,207.14,65.58Zm-7.68-2.74V56.77h-3q-7,0-7,5.22a4.79,4.79,0,0,0,1.08,3.34,4.07,4.07,0,0,0,3.17,1.19C196.14,66.52,198.06,65.29,199.46,62.84Z"/><path d="M232.55,69.52a11.16,11.16,0,0,1-3.54,1.7,14.15,14.15,0,0,1-4,.57q-4.43-.06-6.72-2.52C216.77,67.62,216,65.2,216,62V46.18H211.3V41H216V34.33l7.25-.85V41h7l-.74,5.22h-6.23V61.82A5.14,5.14,0,0,0,224,65a2.88,2.88,0,0,0,2.4,1A7.44,7.44,0,0,0,230,64.88Z"/><path d="M258.85,42.55a9.43,9.43,0,0,1,2.26,6.69v21.7h-7.25V50.37a5.77,5.77,0,0,0-.93-3.74,3.45,3.45,0,0,0-2.75-1.08,5.45,5.45,0,0,0-3.35,1.16A13.2,13.2,0,0,0,243.89,50V70.94h-7.26V29l7.26-.74V44.53a10.94,10.94,0,0,1,8.72-4.42A8.12,8.12,0,0,1,258.85,42.55Z"/><path d="M294,58.19H275.17c.22,2.91,1,5,2.26,6.23a7,7,0,0,0,5.1,1.87,10.51,10.51,0,0,0,3.74-.65,17.08,17.08,0,0,0,3.74-2l3,4.14a17.28,17.28,0,0,1-11.11,4q-6.86,0-10.57-4.19t-3.71-11.45a20.51,20.51,0,0,1,1.59-8.25,13,13,0,0,1,4.59-5.72A12.26,12.26,0,0,1,281,40.11q6.29,0,9.74,4t3.46,11.13C294.15,55.62,294.09,56.6,294,58.19Zm-7-5q0-7.87-5.83-7.88A5,5,0,0,0,277,47.22q-1.5,2-1.78,6.27H287Z"/><path d="M338.24,42.58a9.78,9.78,0,0,1,2.15,6.66v21.7h-7.25V50.37q0-4.82-3.29-4.82a4.46,4.46,0,0,0-3,1.11,13.69,13.69,0,0,0-2.64,3.43V70.94h-7.25V50.37q0-4.82-3.29-4.82a4.54,4.54,0,0,0-3.09,1.11,13.69,13.69,0,0,0-2.63,3.43V70.94h-7.25V41H307l.56,3.91a10.28,10.28,0,0,1,8.67-4.76,7.72,7.72,0,0,1,4.51,1.33,7.52,7.52,0,0,1,2.75,3.72,13.85,13.85,0,0,1,4-3.74,9.61,9.61,0,0,1,5-1.31A7.29,7.29,0,0,1,338.24,42.58Z"/><path d="M373.26,58.19H354.44c.23,2.91,1,5,2.27,6.23a7,7,0,0,0,5.1,1.87,10.54,10.54,0,0,0,3.74-.65,17.08,17.08,0,0,0,3.74-2l3,4.14a17.24,17.24,0,0,1-11.1,4q-6.87,0-10.57-4.19t-3.71-11.45a20.51,20.51,0,0,1,1.58-8.25,13.15,13.15,0,0,1,4.59-5.72,12.26,12.26,0,0,1,7.14-2.07c4.2,0,7.44,1.33,9.75,4s3.46,6.37,3.46,11.13C373.43,55.62,373.37,56.6,373.26,58.19Zm-7-5q0-7.87-5.84-7.88a5,5,0,0,0-4.16,1.95q-1.5,2-1.79,6.27h11.79Z"/><line class="a" x1="59" y1="56" x2="96" y2="56"/><line class="a" x1="404" y1="56.5" x2="441" y2="56.5"/></svg>